<svg id="svg" version="1.1" xmlns="http://www.w3.org/2000/svg" xmlns:xlink="http://www.w3.org/1999/xlink" width="400" height="401.1111111111111" viewBox="0, 0, 400,401.1111111111111"><g id="svgg"><path id="path0" d="M140.159 0.507 C 139.423 0.576,137.919 0.717,136.816 0.819 C 135.712 0.922,134.137 1.156,133.314 1.339 C 132.491 1.522,131.644 1.672,131.432 1.672 C 130.773 1.672,126.216 2.932,123.778 3.789 C 120.711 4.867,119.879 5.196,117.844 6.134 C 115.984 6.991,113.582 8.242,112.244 9.050 C 111.968 9.216,111.399 9.537,110.980 9.761 C 110.560 9.986,110.119 10.289,109.998 10.434 C 109.878 10.579,109.722 10.698,109.652 10.698 C 109.582 10.698,109.057 11.018,108.487 11.408 C 107.916 11.799,107.324 12.194,107.172 12.286 C 107.020 12.378,106.858 12.493,106.812 12.541 C 106.766 12.589,106.389 12.890,105.976 13.208 C 105.562 13.527,105.198 13.845,105.168 13.914 C 105.137 13.984,105.019 14.041,104.905 14.041 C 104.792 14.041,104.540 14.210,104.346 14.417 C 104.151 14.624,103.755 14.981,103.464 15.211 C 100.681 17.413,97.409 20.763,94.158 24.739 C 93.066 26.073,90.430 29.821,90.430 30.037 C 90.430 30.077,90.242 30.357,90.013 30.658 C 89.783 30.959,89.595 31.262,89.595 31.331 C 89.595 31.400,89.425 31.693,89.219 31.982 C 89.012 32.271,88.712 32.771,88.554 33.094 C 88.395 33.417,88.199 33.794,88.120 33.932 C 87.859 34.383,87.556 34.978,86.803 36.514 C 86.395 37.347,85.916 38.306,85.738 38.646 C 85.561 38.986,85.413 39.362,85.411 39.482 C 85.408 39.601,85.220 40.075,84.994 40.535 C 84.768 40.995,84.582 41.462,84.582 41.575 C 84.581 41.687,84.392 42.190,84.162 42.692 C 83.932 43.195,83.744 43.693,83.744 43.799 C 83.744 43.906,83.565 44.531,83.346 45.189 C 82.257 48.465,81.821 50.370,81.047 55.244 L 80.543 58.420 80.451 69.735 L 80.358 81.050 69.556 81.126 C 63.615 81.168,57.965 81.275,57.000 81.363 C 53.247 81.705,47.050 83.087,43.623 84.346 C 43.023 84.567,42.443 84.747,42.333 84.747 C 42.223 84.747,41.722 84.935,41.219 85.165 C 40.717 85.395,40.235 85.583,40.148 85.583 C 39.610 85.583,32.368 89.187,31.120 90.075 C 30.846 90.270,30.565 90.430,30.496 90.430 C 30.427 90.430,30.123 90.618,29.822 90.848 C 29.521 91.078,29.232 91.266,29.180 91.266 C 29.128 91.266,28.559 91.642,27.915 92.102 C 27.271 92.562,26.672 92.938,26.585 92.938 C 26.498 92.938,26.367 93.035,26.293 93.153 C 26.220 93.272,25.655 93.735,25.039 94.183 C 24.423 94.630,23.880 95.098,23.832 95.221 C 23.785 95.344,23.648 95.445,23.528 95.445 C 23.407 95.445,23.189 95.577,23.043 95.738 C 22.897 95.898,22.335 96.400,21.794 96.853 C 20.586 97.864,16.571 101.891,15.545 103.120 C 15.132 103.616,14.624 104.188,14.417 104.391 C 14.210 104.594,14.041 104.829,14.041 104.913 C 14.041 104.997,13.909 105.182,13.748 105.324 C 13.485 105.557,12.036 107.467,11.617 108.133 C 11.525 108.280,11.409 108.437,11.359 108.483 C 11.219 108.612,9.862 110.684,9.862 110.770 C 9.862 110.811,9.693 111.085,9.486 111.378 C 8.035 113.427,5.173 119.142,4.112 122.106 C 3.981 122.474,3.742 123.151,3.581 123.611 C 3.421 124.070,3.140 124.847,2.957 125.337 C 2.774 125.828,2.566 126.505,2.494 126.842 C 2.423 127.179,2.213 127.982,2.028 128.625 C 1.509 130.430,0.897 133.387,0.471 136.147 L 0.084 138.654 0.084 240.869 L 0.084 343.084 0.471 345.591 C 0.897 348.352,1.509 351.309,2.028 353.113 C 2.213 353.757,2.423 354.559,2.494 354.897 C 2.566 355.234,2.774 355.911,2.957 356.401 C 3.140 356.891,3.421 357.668,3.581 358.128 C 4.346 360.317,4.628 361.027,5.475 362.892 C 6.196 364.480,7.601 367.318,7.709 367.405 C 7.766 367.451,8.011 367.865,8.254 368.324 C 8.767 369.296,8.971 369.633,9.486 370.361 C 9.693 370.653,9.862 370.927,9.862 370.969 C 9.862 371.054,11.219 373.126,11.359 373.255 C 11.409 373.301,11.525 373.459,11.617 373.605 C 12.036 374.271,13.485 376.182,13.748 376.414 C 13.909 376.556,14.041 376.741,14.041 376.825 C 14.041 376.909,14.210 377.144,14.417 377.347 C 14.624 377.550,15.131 378.123,15.544 378.620 C 16.521 379.796,20.536 383.827,21.783 384.884 C 22.318 385.337,22.958 385.879,23.204 386.088 C 23.451 386.296,23.803 386.603,23.987 386.769 C 24.170 386.936,24.735 387.364,25.240 387.722 C 25.746 388.079,26.206 388.437,26.262 388.518 C 26.319 388.598,26.520 388.751,26.709 388.858 C 26.898 388.964,27.519 389.371,28.088 389.762 C 28.657 390.153,29.157 390.472,29.199 390.472 C 29.240 390.472,29.521 390.660,29.822 390.890 C 30.123 391.120,30.427 391.308,30.496 391.308 C 30.565 391.308,30.858 391.477,31.148 391.684 C 32.343 392.538,39.612 396.155,40.132 396.155 C 40.228 396.155,40.717 396.344,41.219 396.573 C 41.722 396.803,42.223 396.991,42.333 396.991 C 42.443 396.991,43.023 397.174,43.623 397.397 C 47.170 398.717,53.035 400.004,57.250 400.387 C 60.378 400.672,259.034 400.673,262.181 400.388 C 265.397 400.098,269.972 399.204,272.963 398.283 C 273.560 398.099,274.313 397.890,274.634 397.818 C 275.338 397.663,277.455 396.911,278.428 396.472 C 278.814 396.298,279.199 396.155,279.285 396.155 C 279.827 396.155,287.843 392.154,288.521 391.545 C 288.666 391.415,288.847 391.308,288.923 391.308 C 288.999 391.308,289.308 391.120,289.610 390.890 C 289.911 390.660,290.199 390.472,290.249 390.472 C 290.330 390.472,292.673 388.867,293.105 388.516 C 293.197 388.441,293.817 387.978,294.484 387.488 C 295.150 386.997,295.696 386.528,295.696 386.445 C 295.696 386.361,295.808 386.293,295.945 386.293 C 296.082 386.293,296.288 386.143,296.403 385.959 C 296.518 385.775,296.674 385.625,296.751 385.625 C 297.051 385.625,302.456 380.316,303.886 378.617 C 304.300 378.126,304.751 377.600,304.889 377.448 C 305.460 376.821,307.674 373.876,308.483 372.668 C 308.851 372.119,309.246 371.570,309.361 371.448 C 309.476 371.326,309.570 371.151,309.570 371.059 C 309.570 370.968,309.758 370.646,309.987 370.345 C 310.217 370.044,310.405 369.716,310.405 369.616 C 310.405 369.516,310.502 369.335,310.619 369.214 C 311.139 368.678,314.584 361.913,314.584 361.429 C 314.584 361.349,314.772 360.893,315.002 360.417 C 315.232 359.940,315.420 359.456,315.421 359.341 C 315.422 359.225,315.519 358.943,315.638 358.713 C 316.029 357.959,317.698 352.488,317.922 351.230 C 317.999 350.795,318.213 349.724,318.398 348.851 C 319.341 344.388,319.436 342.742,319.434 331.007 L 319.432 320.100 328.082 320.092 C 342.893 320.079,348.867 319.391,355.871 316.894 C 356.377 316.713,357.016 316.503,357.292 316.426 C 358.144 316.188,359.746 315.579,360.408 315.241 C 360.756 315.063,361.121 314.919,361.220 314.919 C 361.606 314.919,368.124 311.558,368.818 311.002 C 368.998 310.858,369.209 310.740,369.289 310.740 C 369.368 310.740,369.673 310.570,369.965 310.363 C 370.258 310.156,370.622 309.912,370.773 309.820 C 371.408 309.437,373.525 307.988,373.757 307.778 C 373.895 307.653,374.572 307.131,375.261 306.617 C 375.951 306.103,376.684 305.523,376.890 305.328 C 377.096 305.133,377.499 304.785,377.785 304.555 C 378.420 304.045,384.220 298.250,384.756 297.590 C 384.967 297.330,385.327 296.891,385.554 296.615 C 385.782 296.339,386.023 296.036,386.089 295.941 C 386.156 295.846,386.529 295.381,386.920 294.908 C 387.311 294.435,387.631 293.979,387.631 293.895 C 387.631 293.811,387.785 293.602,387.973 293.432 C 388.161 293.262,388.476 292.836,388.672 292.487 C 388.869 292.137,389.091 291.851,389.166 291.851 C 389.241 291.851,389.302 291.786,389.302 291.707 C 389.302 291.628,389.659 291.006,390.096 290.325 C 391.181 288.633,391.170 288.651,392.263 286.669 C 393.074 285.199,394.547 282.113,395.413 280.067 C 396.212 278.182,398.336 271.560,398.331 270.973 C 398.329 270.844,398.514 269.942,398.740 268.967 C 398.966 267.993,399.324 266.105,399.534 264.772 L 399.916 262.349 399.965 161.137 C 400.000 89.815,399.961 59.456,399.835 58.337 C 399.506 55.430,399.160 53.257,398.742 51.482 C 398.515 50.516,398.328 49.580,398.328 49.403 C 398.328 49.096,397.846 47.415,397.126 45.215 C 396.945 44.664,396.724 43.914,396.635 43.550 C 396.545 43.186,396.408 42.810,396.329 42.714 C 396.250 42.619,396.022 42.034,395.822 41.414 C 395.622 40.794,395.390 40.244,395.306 40.192 C 395.221 40.140,395.153 39.976,395.153 39.828 C 395.153 39.680,394.918 39.064,394.631 38.459 C 393.330 35.718,392.397 33.842,392.297 33.765 C 392.237 33.719,391.988 33.305,391.744 32.846 C 390.989 31.425,390.429 30.508,390.280 30.450 C 390.202 30.419,390.138 30.299,390.138 30.183 C 390.138 30.067,389.983 29.793,389.793 29.574 C 389.604 29.356,389.289 28.893,389.094 28.546 C 388.899 28.199,388.678 27.915,388.603 27.915 C 388.528 27.915,388.466 27.839,388.466 27.747 C 388.466 27.556,386.841 25.340,386.309 24.805 C 386.116 24.611,385.959 24.394,385.959 24.323 C 385.959 24.251,385.790 24.024,385.583 23.819 C 385.376 23.614,384.910 23.079,384.546 22.630 C 383.510 21.349,378.671 16.569,377.100 15.275 C 374.978 13.526,373.452 12.369,373.268 12.369 C 373.178 12.369,373.045 12.268,372.971 12.143 C 372.898 12.019,372.311 11.590,371.667 11.190 C 371.024 10.790,370.460 10.420,370.414 10.370 C 370.274 10.215,368.282 9.026,368.163 9.026 C 368.101 9.026,367.805 8.838,367.503 8.608 C 367.202 8.379,366.835 8.191,366.689 8.191 C 366.542 8.191,366.372 8.110,366.312 8.012 C 366.160 7.768,360.396 5.015,360.035 5.015 C 359.957 5.015,359.482 4.827,358.979 4.597 C 358.477 4.367,357.962 4.179,357.836 4.179 C 357.709 4.179,357.304 4.033,356.936 3.855 C 356.568 3.677,356.046 3.485,355.776 3.428 C 355.507 3.371,354.684 3.142,353.949 2.920 C 350.777 1.960,345.734 0.948,343.168 0.756 C 342.478 0.704,341.162 0.591,340.242 0.504 C 338.247 0.316,142.178 0.319,140.159 0.507 M342.332 24.684 C 360.685 28.077,374.016 42.116,376.004 60.147 C 376.384 63.586,376.399 256.701,376.020 260.270 C 374.349 276.011,363.294 289.508,348.099 294.360 C 342.804 296.050,341.154 296.222,329.254 296.317 L 319.437 296.396 319.387 218.444 C 319.341 145.902,319.317 140.332,319.049 138.170 C 315.359 108.363,293.462 86.062,263.602 81.699 L 261.011 81.321 182.616 81.237 L 104.221 81.153 104.222 71.626 C 104.223 64.836,104.287 61.545,104.444 60.176 C 106.627 41.125,121.456 26.491,140.744 24.354 C 141.066 24.319,186.122 24.298,240.869 24.309 L 340.410 24.328 342.332 24.684 M261.464 105.263 C 279.847 108.456,293.804 122.986,295.531 140.728 C 295.748 142.960,295.744 339.064,295.526 341.128 C 293.639 359.044,279.881 373.301,261.346 376.549 C 258.515 377.045,62.799 377.092,58.968 376.598 C 40.608 374.229,26.123 359.647,23.986 341.383 C 23.607 338.137,23.607 143.602,23.986 140.356 C 25.576 126.762,35.029 113.750,47.087 108.556 C 52.088 106.401,55.795 105.432,61.011 104.916 C 61.333 104.884,106.089 104.866,160.468 104.876 L 259.340 104.894 261.464 105.263 M89.845 189.647 C 79.091 191.759,77.309 207.022,87.254 211.836 C 89.797 213.067,82.551 212.954,159.544 212.954 L 228.269 212.954 229.680 212.602 C 241.753 209.586,241.265 191.962,229.044 189.623 C 227.214 189.273,91.631 189.296,89.845 189.647 M90.100 269.713 C 78.331 272.272,77.175 288.121,88.442 292.461 L 89.678 292.938 158.964 292.987 C 232.103 293.039,229.171 293.069,231.200 292.247 C 237.829 289.563,240.519 281.657,236.967 275.303 C 235.713 273.060,232.923 270.880,230.088 269.929 L 228.918 269.536 160.050 269.507 C 101.369 269.482,91.022 269.513,90.100 269.713 " stroke="none" fill="#2c3434" fill-rule="evenodd"></path><path id="path1" d="M141.496 24.420 C 127.090 25.379,113.608 34.899,107.784 48.224 C 106.583 50.972,106.181 52.162,105.411 55.244 C 104.479 58.972,104.424 59.787,104.350 70.829 L 104.281 81.066 182.061 81.113 C 254.549 81.158,260.006 81.181,262.265 81.450 C 268.095 82.145,274.465 83.732,279.064 85.635 C 281.762 86.752,282.328 87.003,283.734 87.709 C 302.546 97.152,315.299 114.436,318.688 135.083 C 319.440 139.659,319.431 138.658,319.431 219.097 L 319.432 296.197 328.632 296.197 C 339.710 296.197,342.174 295.984,347.000 294.607 C 362.404 290.210,373.860 276.843,375.840 260.954 C 376.235 257.780,376.231 62.599,375.835 59.480 C 373.423 40.467,357.707 25.636,338.664 24.402 C 335.680 24.209,144.409 24.226,141.496 24.420 " stroke="none" fill="#f3c33c" fill-rule="evenodd"></path><path id="path2" d="M60.092 105.151 C 41.957 106.722,27.091 121.000,24.187 139.636 L 23.819 141.997 23.819 240.786 L 23.819 339.574 24.204 342.165 C 26.932 360.535,41.367 374.513,59.758 376.593 C 61.846 376.829,257.586 376.829,259.674 376.593 C 278.266 374.491,292.764 360.315,295.314 341.747 C 295.782 338.338,295.777 143.350,295.309 139.992 C 292.694 121.233,277.596 106.705,259.089 105.141 C 256.769 104.945,62.358 104.954,60.092 105.151 M230.422 189.783 C 242.098 193.978,241.104 210.576,229.039 212.885 C 227.176 213.241,91.916 213.240,90.053 212.884 C 77.269 210.438,77.444 191.929,90.276 189.400 C 90.691 189.318,121.326 189.264,160.050 189.278 L 229.085 189.302 230.422 189.783 M229.580 269.661 C 241.610 273.033,241.725 289.418,229.744 292.888 L 228.416 293.272 159.632 293.272 L 90.848 293.272 89.455 292.891 C 76.595 289.375,77.842 271.564,91.099 269.398 C 92.672 269.141,228.646 269.399,229.580 269.661 " stroke="none" fill="#fbfbfb" fill-rule="evenodd"></path><path id="path3" d="M141.701 24.358 C 141.998 24.395,142.525 24.396,142.871 24.359 C 143.218 24.323,142.975 24.293,142.332 24.292 C 141.688 24.291,141.405 24.321,141.701 24.358 M337.610 24.358 C 337.908 24.395,338.397 24.395,338.696 24.358 C 338.995 24.321,338.751 24.291,338.153 24.291 C 337.555 24.291,337.311 24.321,337.610 24.358 M354.534 28.826 C 354.534 28.871,354.760 29.026,355.036 29.168 C 355.311 29.311,355.537 29.390,355.537 29.344 C 355.537 29.298,355.311 29.144,355.036 29.001 C 354.760 28.859,354.534 28.780,354.534 28.826 M364.226 35.980 C 365.853 37.649,366.068 37.853,366.068 37.732 C 366.068 37.707,365.259 36.899,364.271 35.935 L 362.474 34.183 364.226 35.980 M114.239 37.986 L 113.748 38.529 114.292 38.038 C 114.590 37.768,114.835 37.524,114.835 37.495 C 114.835 37.366,114.697 37.479,114.239 37.986 M108.817 45.800 C 108.630 46.168,108.514 46.469,108.560 46.469 C 108.606 46.469,108.797 46.168,108.985 45.800 C 109.172 45.433,109.288 45.132,109.242 45.132 C 109.196 45.132,109.005 45.433,108.817 45.800 M371.584 45.967 C 371.771 46.335,371.962 46.636,372.008 46.636 C 372.054 46.636,371.939 46.335,371.751 45.967 C 371.563 45.600,371.372 45.299,371.326 45.299 C 371.280 45.299,371.396 45.600,371.584 45.967 M104.346 61.429 C 104.348 61.797,104.382 61.928,104.422 61.720 C 104.462 61.512,104.461 61.211,104.419 61.051 C 104.377 60.891,104.345 61.061,104.346 61.429 M376.180 160.217 C 376.180 214.367,376.199 236.544,376.222 209.500 C 376.246 182.455,376.246 138.151,376.222 111.046 C 376.199 83.941,376.180 106.068,376.180 160.217 M104.218 72.461 L 104.221 81.153 181.153 81.154 L 258.086 81.154 181.197 81.112 L 104.307 81.069 104.262 72.419 L 104.216 63.769 104.218 72.461 M259.632 81.352 C 259.793 81.394,260.056 81.394,260.217 81.352 C 260.378 81.310,260.247 81.276,259.925 81.276 C 259.603 81.276,259.471 81.310,259.632 81.352 M297.367 96.835 C 297.367 96.863,297.612 97.108,297.911 97.378 L 298.454 97.869 297.963 97.326 C 297.505 96.819,297.367 96.705,297.367 96.835 M300.540 99.833 C 301.504 100.821,302.313 101.630,302.337 101.630 C 302.458 101.630,302.254 101.415,300.585 99.788 L 298.788 98.036 300.540 99.833 M303.218 102.716 C 303.530 103.038,303.822 103.301,303.868 103.301 C 303.914 103.301,303.697 103.038,303.385 102.716 C 303.073 102.394,302.780 102.131,302.734 102.131 C 302.688 102.131,302.906 102.394,303.218 102.716 M61.891 104.926 C 62.145 104.964,62.521 104.963,62.727 104.923 C 62.933 104.884,62.725 104.852,62.265 104.853 C 61.805 104.855,61.637 104.887,61.891 104.926 M256.791 104.925 C 257.043 104.964,257.457 104.964,257.710 104.925 C 257.963 104.887,257.756 104.856,257.250 104.856 C 256.745 104.856,256.538 104.887,256.791 104.925 M281.989 114.887 C 281.989 114.916,282.234 115.160,282.532 115.430 L 283.076 115.921 282.585 115.378 C 282.127 114.872,281.989 114.758,281.989 114.887 M36.348 115.880 L 35.687 116.590 36.398 115.929 C 37.058 115.315,37.185 115.169,37.059 115.169 C 37.031 115.169,36.712 115.489,36.348 115.880 M312.256 115.754 C 312.256 115.846,312.363 116.109,312.495 116.339 C 312.626 116.569,312.734 116.682,312.734 116.590 C 312.734 116.498,312.626 116.235,312.495 116.005 C 312.363 115.775,312.256 115.662,312.256 115.754 M34.340 117.885 L 33.849 118.429 34.392 117.938 C 34.898 117.480,35.012 117.342,34.883 117.342 C 34.854 117.342,34.610 117.587,34.340 117.885 M313.092 117.426 C 313.092 117.518,313.199 117.781,313.331 118.011 C 313.462 118.241,313.569 118.354,313.569 118.262 C 313.569 118.170,313.462 117.906,313.331 117.677 C 313.199 117.447,313.092 117.334,313.092 117.426 M284.831 117.729 C 284.831 117.758,285.075 118.002,285.374 118.272 L 285.917 118.763 285.426 118.220 C 284.969 117.713,284.831 117.600,284.831 117.729 M318.972 137.651 C 318.974 138.019,319.008 138.150,319.048 137.942 C 319.088 137.734,319.087 137.433,319.045 137.273 C 319.003 137.114,318.971 137.284,318.972 137.651 M319.143 139.239 C 319.143 139.653,319.175 139.822,319.215 139.616 C 319.255 139.409,319.255 139.070,319.215 138.863 C 319.175 138.656,319.143 138.826,319.143 139.239 M319.312 141.830 C 319.314 142.290,319.346 142.458,319.384 142.204 C 319.423 141.950,319.422 141.574,319.382 141.368 C 319.343 141.163,319.311 141.371,319.312 141.830 M83.987 192.771 L 83.326 193.481 84.037 192.820 C 84.697 192.206,84.824 192.060,84.698 192.060 C 84.670 192.060,84.351 192.380,83.987 192.771 M238.583 201.254 C 238.583 201.851,238.613 202.096,238.650 201.797 C 238.687 201.498,238.687 201.009,238.650 200.710 C 238.613 200.412,238.583 200.656,238.583 201.254 M83.904 209.486 C 84.314 209.923,84.672 210.280,84.698 210.280 C 84.824 210.280,84.691 210.130,83.953 209.437 L 83.159 208.692 83.904 209.486 M125.310 213.080 C 144.080 213.103,174.845 213.103,193.676 213.080 C 212.507 213.056,197.150 213.037,159.549 213.037 C 121.947 213.037,106.540 213.056,125.310 213.080 M375.969 259.925 C 375.969 260.247,376.003 260.378,376.045 260.217 C 376.087 260.056,376.087 259.793,376.045 259.632 C 376.003 259.471,375.969 259.603,375.969 259.925 M375.801 261.429 C 375.801 261.751,375.836 261.883,375.878 261.722 C 375.920 261.561,375.920 261.298,375.878 261.137 C 375.836 260.976,375.801 261.107,375.801 261.429 M235.102 272.963 C 235.555 273.422,235.963 273.799,236.009 273.799 C 236.055 273.799,235.722 273.422,235.270 272.963 C 234.817 272.503,234.409 272.127,234.363 272.127 C 234.317 272.127,234.650 272.503,235.102 272.963 M238.581 281.237 C 238.582 281.789,238.613 281.994,238.650 281.694 C 238.687 281.393,238.687 280.942,238.648 280.691 C 238.610 280.440,238.580 280.685,238.581 281.237 M365.476 283.201 L 364.647 284.079 365.524 283.249 C 366.007 282.793,366.402 282.398,366.402 282.372 C 366.402 282.247,366.247 282.386,365.476 283.201 M363.136 285.541 L 362.307 286.419 363.184 285.589 C 363.667 285.133,364.062 284.738,364.062 284.712 C 364.062 284.587,363.907 284.726,363.136 285.541 M125.324 293.147 C 144.193 293.170,175.071 293.170,193.941 293.147 C 212.810 293.123,197.372 293.104,159.632 293.104 C 121.893 293.104,106.454 293.123,125.324 293.147 M338.696 296.145 C 338.857 296.187,339.120 296.187,339.281 296.145 C 339.442 296.103,339.310 296.069,338.989 296.069 C 338.667 296.069,338.535 296.103,338.696 296.145 M323.831 296.323 C 326.297 296.349,330.284 296.349,332.690 296.322 C 335.097 296.296,333.080 296.275,328.207 296.275 C 323.335 296.275,321.366 296.296,323.831 296.323 M33.765 363.278 C 33.765 363.307,34.010 363.552,34.308 363.822 L 34.852 364.313 34.361 363.769 C 33.903 363.263,33.765 363.149,33.765 363.278 M61.306 376.884 C 61.514 376.924,61.815 376.922,61.974 376.880 C 62.134 376.839,61.964 376.806,61.596 376.808 C 61.229 376.810,61.098 376.844,61.306 376.884 M257.545 376.884 C 257.753 376.924,258.054 376.922,258.213 376.880 C 258.373 376.839,258.203 376.806,257.835 376.808 C 257.468 376.810,257.337 376.844,257.545 376.884 " stroke="none" fill="#8d7659" fill-rule="evenodd"></path><path id="path4" d="M111.380 104.931 C 138.026 104.954,181.578 104.954,208.162 104.931 C 234.747 104.908,212.946 104.889,159.716 104.889 C 106.486 104.889,84.735 104.908,111.380 104.931 M60.468 105.091 C 60.675 105.131,61.013 105.131,61.220 105.091 C 61.427 105.051,61.258 105.018,60.844 105.018 C 60.430 105.018,60.261 105.051,60.468 105.091 M258.211 105.091 C 258.418 105.131,258.757 105.131,258.964 105.091 C 259.170 105.051,259.001 105.018,258.588 105.018 C 258.174 105.018,258.005 105.051,258.211 105.091 M283.828 116.757 C 284.327 117.263,284.773 117.677,284.819 117.677 C 284.865 117.677,284.494 117.263,283.995 116.757 C 283.496 116.252,283.049 115.838,283.003 115.838 C 282.958 115.838,283.328 116.252,283.828 116.757 M125.254 189.344 C 144.177 189.367,175.092 189.367,193.954 189.344 C 212.816 189.320,197.334 189.301,159.549 189.301 C 121.763 189.301,106.331 189.320,125.254 189.344 M80.453 201.170 C 80.454 201.722,80.485 201.927,80.522 201.627 C 80.560 201.326,80.559 200.875,80.521 200.624 C 80.482 200.373,80.452 200.618,80.453 201.170 M235.095 209.653 L 234.434 210.364 235.144 209.703 C 235.805 209.088,235.931 208.943,235.805 208.943 C 235.778 208.943,235.458 209.262,235.095 209.653 M125.505 269.411 C 144.290 269.434,174.979 269.434,193.704 269.411 C 212.428 269.387,197.058 269.368,159.549 269.368 C 122.039 269.368,106.719 269.387,125.505 269.411 M80.451 281.321 C 80.451 281.826,80.483 282.033,80.521 281.780 C 80.559 281.527,80.559 281.114,80.521 280.861 C 80.483 280.608,80.451 280.815,80.451 281.321 M238.568 282.658 C 238.568 282.980,238.602 283.111,238.644 282.950 C 238.686 282.789,238.686 282.526,238.644 282.365 C 238.602 282.204,238.568 282.336,238.568 282.658 M83.828 289.678 C 84.187 290.046,84.518 290.347,84.564 290.347 C 84.610 290.347,84.354 290.046,83.995 289.678 C 83.636 289.310,83.304 289.010,83.259 289.010 C 83.213 289.010,83.469 289.310,83.828 289.678 M125.658 293.314 C 144.344 293.337,174.921 293.337,193.606 293.314 C 212.292 293.290,197.004 293.271,159.632 293.271 C 122.261 293.271,106.972 293.290,125.658 293.314 M283.908 364.939 L 282.407 366.486 283.953 364.985 C 285.389 363.591,285.575 363.393,285.454 363.393 C 285.429 363.393,284.733 364.089,283.908 364.939 M35.430 364.939 C 36.122 365.677,36.272 365.810,36.272 365.685 C 36.272 365.658,35.915 365.300,35.478 364.891 L 34.684 364.145 35.430 364.939 M110.962 376.891 C 137.838 376.914,181.766 376.914,208.580 376.891 C 235.395 376.868,213.406 376.849,159.716 376.849 C 106.026 376.849,84.087 376.868,110.962 376.891 " stroke="none" fill="#c4bcbc" fill-rule="evenodd"></path></g></svg>